<?xml version="1.0" standalone="no"?>
<!DOCTYPE svg PUBLIC "-//W3C//DTD SVG 20010904//EN" "http://www.w3.org/TR/2001/REC-SVG-20010904/DTD/svg10.dtd">
<!-- Created using Krita: https://krita.org -->
<svg xmlns="http://www.w3.org/2000/svg" 
    xmlns:xlink="http://www.w3.org/1999/xlink"
    xmlns:krita="http://krita.org/namespaces/svg/krita"
    xmlns:sodipodi="http://sodipodi.sourceforge.net/DTD/sodipodi-0.dtd"
    width="240pt"
    height="108pt"
    viewBox="0 0 240 108">
<defs/>
<path id="shape0" transform="translate(13.8247124646257, 18.464151892866)" fill="#bfbfbf" fill-rule="evenodd" stroke="#262626" stroke-width="9.6" stroke-linecap="square" stroke-linejoin="bevel" d="M29.2374 0C22.7279 0.849057 8.29397 -1.69811 6.59586 3.96226C4.89774 9.62264 -5.85697 75.283 4.33171 76.6981C14.5204 78.1132 158.86 86.3208 164.237 76.9811C169.615 67.6415 169.898 11.8868 161.124 5.37736C147.539 0.566038 148.671 2.83019 29.2374 0Z" sodipodi:nodetypes="czzzcc"/><path id="shape1" transform="translate(87.2130233844309, 4.25531827365501)" fill="none" stroke="#262626" stroke-width="4.8" stroke-linecap="square" stroke-linejoin="bevel" d="M0 10.8126C4.15094 3.07676 10.7547 -0.508148 19.8113 0.0578902C28.8679 0.623928 34.2453 5.15223 35.9434 13.6428" sodipodi:nodetypes="czc"/><path id="shape2" transform="translate(181.446141798417, 75.9169820815452)" fill="none" stroke="#262626" stroke-width="4.8" stroke-linecap="square" stroke-linejoin="bevel" d="M0 2.04023C0.194108 6.12068 1.94108 8.06376 5.24093 7.86945C8.54077 7.67514 13.6846 5.05199 20.6725 0" sodipodi:nodetypes="czc"/><path id="shape3" transform="translate(198.592940237645, 52.9924537796584)" fill="#ffffff" fill-rule="evenodd" stroke="#262626" stroke-width="4.8" stroke-linecap="square" stroke-linejoin="bevel" d="M5.22386 0C-1.00256 6.79245 -1.66294 13.0189 3.24272 18.6792C10.6012 27.1698 15.6956 20.3774 19.9408 16.6981C22.771 14.2453 24.1861 13.0189 24.1861 13.0189C24.1861 13.0189 17.8654 8.67925 5.22386 0Z" sodipodi:nodetypes="czzcc"/><path id="shape4" transform="translate(208.628117724054, 44.2188688739981)" fill="none" stroke="#262626" stroke-width="4.8" stroke-linecap="square" stroke-linejoin="bevel" d="M0 9.90566L6.79245 0L17.5472 8.20755L10.1887 18.3962" sodipodi:nodetypes="cccc"/><path id="shape5" transform="translate(215.93882168426, 50.3676782645906)" fill="none" stroke="#262626" stroke-width="2.64" stroke-linecap="square" stroke-linejoin="miter" stroke-miterlimit="2" d="M0.46669 0L0 0.806102" sodipodi:nodetypes="cc"/><path id="shape6" transform="translate(219.375360731701, 52.9981155601627)" fill="none" stroke="#262626" stroke-width="2.64" stroke-linecap="square" stroke-linejoin="miter" stroke-miterlimit="2" d="M0.59397 0L0 0.848528" sodipodi:nodetypes="cc"/><rect id="shape7" transform="translate(25.9907600700633, 72.9308840687268)" fill="#ffffff" fill-rule="evenodd" stroke="#d00000" stroke-width="2.64" stroke-linecap="square" stroke-linejoin="bevel" width="17.76" height="14.4"/><rect id="shape0" transform="matrix(0.999999981368605 0 0 0.999999981368605 48.5421223677997 73.2542198146359)" fill="#ffffff" stroke="#d00000" stroke-width="2.64" stroke-linecap="square" stroke-linejoin="bevel" width="17.76" height="14.4"/><rect id="shape01" transform="matrix(0.999999981368605 0 0 0.999999981368605 25.631862736552 53.5683670947604)" fill="#ffffff" stroke="#d00000" stroke-width="2.64" stroke-linecap="square" stroke-linejoin="bevel" width="17.76" height="14.4"/><rect id="shape02" transform="matrix(0.999999981368605 0 0 0.999999981368605 70.4341482397479 73.5936310684645)" fill="#ffffff" stroke="#d00000" stroke-width="2.64" stroke-linecap="square" stroke-linejoin="bevel" width="17.76" height="14.4"/><rect id="shape03" transform="matrix(0.999999981368605 0 0 0.999999981368605 92.326174111696 73.5936310684645)" fill="#ffffff" stroke="#d00000" stroke-width="2.64" stroke-linecap="square" stroke-linejoin="bevel" width="17.76" height="14.4"/><rect id="shape04" transform="matrix(0.999999954010299 0 0 0.999999954010299 48.0135203061131 53.5522904578865)" fill="#ffffff" stroke="#d00000" stroke-width="2.64" stroke-linecap="square" stroke-linejoin="bevel" width="17.76" height="14.4"/><rect id="shape05" transform="matrix(0.999999912857183 0 0 0.999999912857183 70.734586488612 53.5362129288168)" fill="#ffffff" stroke="#d00000" stroke-width="2.64" stroke-linecap="square" stroke-linejoin="bevel" width="17.76" height="14.4"/><rect id="shape06" transform="matrix(0.999999929298395 0 0 0.999999929298395 92.2677166452929 53.8595518262089)" fill="#ffffff" stroke="#d00000" stroke-width="2.64" stroke-linecap="square" stroke-linejoin="bevel" width="17.76" height="14.4"/><rect id="shape07" transform="matrix(0.999999945444709 0 0 0.999999945444709 113.993401227373 54.0131844378144)" fill="#ffffff" stroke="#d00000" stroke-width="2.64" stroke-linecap="square" stroke-linejoin="bevel" width="17.76" height="14.4"/><rect id="shape08" transform="matrix(0.999999923470255 0 0 0.999999923470255 157.056295857926 53.9971081951335)" fill="#ffffff" stroke="#d00000" stroke-width="2.64" stroke-linecap="square" stroke-linejoin="bevel" width="17.76" height="14.4"/><rect id="shape09" transform="matrix(0.999999923470255 0 0 0.999999923470255 135.333975612892 53.9971081951335)" fill="#ffffff" stroke="#d00000" stroke-width="2.64" stroke-linecap="square" stroke-linejoin="bevel" width="17.76" height="14.4"/><rect id="shape010" transform="matrix(0.999999887802539 0 0 0.999999887802539 156.018572824761 33.7860611539578)" fill="#ffffff" stroke="#d00000" stroke-width="2.64" stroke-linecap="square" stroke-linejoin="bevel" width="17.76" height="14.4"/><rect id="shape011" transform="matrix(0.999999853329912 0 0 0.999999853329912 135.294996548868 33.6002787620503)" fill="#ffffff" stroke="#d00000" stroke-width="2.64" stroke-linecap="square" stroke-linejoin="bevel" width="17.76" height="14.4"/><rect id="shape012" transform="matrix(0.999999853329912 0 0 0.999999853329912 113.993402045352 33.6002787620503)" fill="#ffffff" stroke="#d00000" stroke-width="2.64" stroke-linecap="square" stroke-linejoin="bevel" width="17.76" height="14.4"/><rect id="shape013" transform="matrix(0.999999863585334 0 0 0.999999863585334 92.760713990974 33.4144994754985)" fill="#ffffff" stroke="#d00000" stroke-width="2.64" stroke-linecap="square" stroke-linejoin="bevel" width="17.76" height="14.4"/><ellipse id="shape8" transform="translate(114.473400742921, 51.3600009494698)" rx="9.59999999999999" ry="10.08" cx="9.59999999999999" cy="10.08" fill="none" stroke="#00ff00" stroke-width="2.64" stroke-linecap="square" stroke-linejoin="bevel"/><path id="shape9" transform="translate(119.970284822489, 58.4286943072926)" fill="none" stroke="#00ff00" stroke-width="2.64" stroke-linecap="square" stroke-linejoin="miter" stroke-miterlimit="2" d="M0 0L2.90312 4.75176" sodipodi:nodetypes="cc"/><path id="shape10" transform="translate(122.873400742922, 49.6040015940498)" fill="none" stroke="#00ff00" stroke-width="2.64" stroke-linecap="square" stroke-linejoin="miter" stroke-miterlimit="2" d="M0 14.0856L12.5401 0" sodipodi:nodetypes="cc"/>
</svg>
